<mxfile host="app.diagrams.net" modified="2020-11-17T11:48:16.033Z" agent="5.0 (Windows)" etag="UEhNesBWpTY4e_s1IM6h" version="13.9.9" type="github">
  <diagram id="DGLip7xHxbOigp7pDAnI" name="Page-1">
    <mxGraphModel dx="2433" dy="1744" grid="1" gridSize="10" guides="1" tooltips="1" connect="1" arrows="1" fold="1" page="1" pageScale="1" pageWidth="850" pageHeight="1100" math="0" shadow="0">
      <root>
        <mxCell id="0" />
        <mxCell id="1" parent="0" />
        <mxCell id="EZNUbbrIOKoAF0ysCXxH-5" style="edgeStyle=orthogonalEdgeStyle;rounded=0;orthogonalLoop=1;jettySize=auto;html=1;" parent="1" target="EZNUbbrIOKoAF0ysCXxH-3" edge="1">
          <mxGeometry relative="1" as="geometry">
            <mxPoint x="730.71" y="-370" as="sourcePoint" />
          </mxGeometry>
        </mxCell>
        <mxCell id="EZNUbbrIOKoAF0ysCXxH-8" style="edgeStyle=orthogonalEdgeStyle;rounded=0;orthogonalLoop=1;jettySize=auto;html=1;entryX=0.451;entryY=-0.008;entryDx=0;entryDy=0;entryPerimeter=0;" parent="1" target="EZNUbbrIOKoAF0ysCXxH-7" edge="1">
          <mxGeometry relative="1" as="geometry">
            <mxPoint x="730.71" y="-370" as="sourcePoint" />
          </mxGeometry>
        </mxCell>
        <mxCell id="EZNUbbrIOKoAF0ysCXxH-18" style="edgeStyle=orthogonalEdgeStyle;rounded=0;orthogonalLoop=1;jettySize=auto;html=1;entryX=1;entryY=0.5;entryDx=0;entryDy=0;" parent="1" source="EZNUbbrIOKoAF0ysCXxH-1" target="EZNUbbrIOKoAF0ysCXxH-17" edge="1">
          <mxGeometry relative="1" as="geometry" />
        </mxCell>
        <mxCell id="EZNUbbrIOKoAF0ysCXxH-19" style="edgeStyle=orthogonalEdgeStyle;rounded=0;orthogonalLoop=1;jettySize=auto;html=1;entryX=1;entryY=0.5;entryDx=0;entryDy=0;" parent="1" source="EZNUbbrIOKoAF0ysCXxH-1" target="EZNUbbrIOKoAF0ysCXxH-14" edge="1">
          <mxGeometry relative="1" as="geometry" />
        </mxCell>
        <mxCell id="EZNUbbrIOKoAF0ysCXxH-20" style="edgeStyle=orthogonalEdgeStyle;rounded=0;orthogonalLoop=1;jettySize=auto;html=1;entryX=0.976;entryY=0.397;entryDx=0;entryDy=0;entryPerimeter=0;" parent="1" source="EZNUbbrIOKoAF0ysCXxH-1" target="EZNUbbrIOKoAF0ysCXxH-16" edge="1">
          <mxGeometry relative="1" as="geometry" />
        </mxCell>
        <mxCell id="EZNUbbrIOKoAF0ysCXxH-21" style="edgeStyle=orthogonalEdgeStyle;rounded=0;orthogonalLoop=1;jettySize=auto;html=1;entryX=1;entryY=0.5;entryDx=0;entryDy=0;" parent="1" source="EZNUbbrIOKoAF0ysCXxH-1" target="EZNUbbrIOKoAF0ysCXxH-15" edge="1">
          <mxGeometry relative="1" as="geometry" />
        </mxCell>
        <mxCell id="EZNUbbrIOKoAF0ysCXxH-24" style="edgeStyle=orthogonalEdgeStyle;rounded=0;orthogonalLoop=1;jettySize=auto;html=1;exitX=0.5;exitY=0;exitDx=0;exitDy=0;entryX=0.4;entryY=1.025;entryDx=0;entryDy=0;entryPerimeter=0;" parent="1" source="EZNUbbrIOKoAF0ysCXxH-1" target="EZNUbbrIOKoAF0ysCXxH-22" edge="1">
          <mxGeometry relative="1" as="geometry" />
        </mxCell>
        <mxCell id="EZNUbbrIOKoAF0ysCXxH-25" style="edgeStyle=orthogonalEdgeStyle;rounded=0;orthogonalLoop=1;jettySize=auto;html=1;entryX=0.28;entryY=1;entryDx=0;entryDy=0;entryPerimeter=0;" parent="1" source="EZNUbbrIOKoAF0ysCXxH-1" target="EZNUbbrIOKoAF0ysCXxH-23" edge="1">
          <mxGeometry relative="1" as="geometry" />
        </mxCell>
        <mxCell id="EZNUbbrIOKoAF0ysCXxH-27" style="edgeStyle=orthogonalEdgeStyle;rounded=0;orthogonalLoop=1;jettySize=auto;html=1;entryX=1;entryY=0.5;entryDx=0;entryDy=0;" parent="1" source="EZNUbbrIOKoAF0ysCXxH-1" target="EZNUbbrIOKoAF0ysCXxH-26" edge="1">
          <mxGeometry relative="1" as="geometry" />
        </mxCell>
        <mxCell id="EZNUbbrIOKoAF0ysCXxH-60" style="edgeStyle=orthogonalEdgeStyle;rounded=0;orthogonalLoop=1;jettySize=auto;html=1;entryX=0;entryY=0.5;entryDx=0;entryDy=0;" parent="1" source="EZNUbbrIOKoAF0ysCXxH-1" target="EZNUbbrIOKoAF0ysCXxH-59" edge="1">
          <mxGeometry relative="1" as="geometry">
            <Array as="points">
              <mxPoint x="720" y="-540" />
              <mxPoint x="540" y="-540" />
              <mxPoint x="540" y="-580" />
            </Array>
          </mxGeometry>
        </mxCell>
        <mxCell id="EZNUbbrIOKoAF0ysCXxH-69" style="edgeStyle=orthogonalEdgeStyle;rounded=0;orthogonalLoop=1;jettySize=auto;html=1;" parent="1" source="EZNUbbrIOKoAF0ysCXxH-1" target="EZNUbbrIOKoAF0ysCXxH-68" edge="1">
          <mxGeometry relative="1" as="geometry" />
        </mxCell>
        <mxCell id="EZNUbbrIOKoAF0ysCXxH-78" style="edgeStyle=orthogonalEdgeStyle;rounded=0;orthogonalLoop=1;jettySize=auto;html=1;entryX=0;entryY=0;entryDx=0;entryDy=0;" parent="1" target="EZNUbbrIOKoAF0ysCXxH-77" edge="1">
          <mxGeometry relative="1" as="geometry">
            <mxPoint x="730.71" y="-370" as="sourcePoint" />
          </mxGeometry>
        </mxCell>
        <mxCell id="EZNUbbrIOKoAF0ysCXxH-1" value="user" style="rounded=0;whiteSpace=wrap;html=1;" parent="1" vertex="1">
          <mxGeometry x="660" y="-420" width="120" height="50" as="geometry" />
        </mxCell>
        <mxCell id="EZNUbbrIOKoAF0ysCXxH-3" value="id" style="ellipse;whiteSpace=wrap;html=1;align=center;fontStyle=4;" parent="1" vertex="1">
          <mxGeometry x="730.71" y="-310" width="100" height="40" as="geometry" />
        </mxCell>
        <mxCell id="EZNUbbrIOKoAF0ysCXxH-11" style="edgeStyle=orthogonalEdgeStyle;rounded=0;orthogonalLoop=1;jettySize=auto;html=1;" parent="1" source="EZNUbbrIOKoAF0ysCXxH-7" target="EZNUbbrIOKoAF0ysCXxH-9" edge="1">
          <mxGeometry relative="1" as="geometry" />
        </mxCell>
        <mxCell id="EZNUbbrIOKoAF0ysCXxH-12" style="edgeStyle=orthogonalEdgeStyle;rounded=0;orthogonalLoop=1;jettySize=auto;html=1;entryX=0.293;entryY=0.009;entryDx=0;entryDy=0;entryPerimeter=0;" parent="1" source="EZNUbbrIOKoAF0ysCXxH-7" edge="1">
          <mxGeometry relative="1" as="geometry">
            <mxPoint x="600.0100000000002" y="-229.6400000000001" as="targetPoint" />
          </mxGeometry>
        </mxCell>
        <mxCell id="EZNUbbrIOKoAF0ysCXxH-7" value="user_name" style="ellipse;whiteSpace=wrap;html=1;align=center;" parent="1" vertex="1">
          <mxGeometry x="630.71" y="-310" width="100" height="40" as="geometry" />
        </mxCell>
        <mxCell id="EZNUbbrIOKoAF0ysCXxH-9" value="f_name" style="ellipse;whiteSpace=wrap;html=1;align=center;" parent="1" vertex="1">
          <mxGeometry x="710.71" y="-230" width="100" height="40" as="geometry" />
        </mxCell>
        <mxCell id="EZNUbbrIOKoAF0ysCXxH-10" value="L_name" style="ellipse;whiteSpace=wrap;html=1;align=center;" parent="1" vertex="1">
          <mxGeometry x="560" y="-230" width="100" height="40" as="geometry" />
        </mxCell>
        <mxCell id="EZNUbbrIOKoAF0ysCXxH-13" value="L_name" style="ellipse;whiteSpace=wrap;html=1;align=center;" parent="1" vertex="1">
          <mxGeometry x="560" y="-230" width="100" height="40" as="geometry" />
        </mxCell>
        <mxCell id="EZNUbbrIOKoAF0ysCXxH-14" value="Password" style="ellipse;whiteSpace=wrap;html=1;align=center;" parent="1" vertex="1">
          <mxGeometry x="500" y="-430" width="100" height="40" as="geometry" />
        </mxCell>
        <mxCell id="EZNUbbrIOKoAF0ysCXxH-15" value="Avatar" style="ellipse;whiteSpace=wrap;html=1;align=center;" parent="1" vertex="1">
          <mxGeometry x="500" y="-330" width="100" height="40" as="geometry" />
        </mxCell>
        <mxCell id="EZNUbbrIOKoAF0ysCXxH-16" value="phone" style="ellipse;whiteSpace=wrap;html=1;align=center;" parent="1" vertex="1">
          <mxGeometry x="500" y="-380" width="100" height="40" as="geometry" />
        </mxCell>
        <mxCell id="EZNUbbrIOKoAF0ysCXxH-17" value="Email" style="ellipse;whiteSpace=wrap;html=1;align=center;" parent="1" vertex="1">
          <mxGeometry x="580" y="-480" width="100" height="40" as="geometry" />
        </mxCell>
        <mxCell id="EZNUbbrIOKoAF0ysCXxH-22" value="Birthday" style="ellipse;whiteSpace=wrap;html=1;align=center;" parent="1" vertex="1">
          <mxGeometry x="680" y="-600" width="100" height="40" as="geometry" />
        </mxCell>
        <mxCell id="EZNUbbrIOKoAF0ysCXxH-23" value="fac_profile" style="ellipse;whiteSpace=wrap;html=1;align=center;" parent="1" vertex="1">
          <mxGeometry x="730" y="-550" width="100" height="40" as="geometry" />
        </mxCell>
        <mxCell id="EZNUbbrIOKoAF0ysCXxH-26" value="country" style="ellipse;whiteSpace=wrap;html=1;align=center;" parent="1" vertex="1">
          <mxGeometry x="580" y="-530" width="100" height="40" as="geometry" />
        </mxCell>
        <mxCell id="EZNUbbrIOKoAF0ysCXxH-52" style="edgeStyle=orthogonalEdgeStyle;rounded=0;orthogonalLoop=1;jettySize=auto;html=1;entryX=0.59;entryY=1;entryDx=0;entryDy=0;entryPerimeter=0;" parent="1" source="EZNUbbrIOKoAF0ysCXxH-47" target="EZNUbbrIOKoAF0ysCXxH-49" edge="1">
          <mxGeometry relative="1" as="geometry" />
        </mxCell>
        <mxCell id="EZNUbbrIOKoAF0ysCXxH-53" style="edgeStyle=orthogonalEdgeStyle;rounded=0;orthogonalLoop=1;jettySize=auto;html=1;entryX=0.41;entryY=1.025;entryDx=0;entryDy=0;entryPerimeter=0;" parent="1" source="EZNUbbrIOKoAF0ysCXxH-47" target="EZNUbbrIOKoAF0ysCXxH-51" edge="1">
          <mxGeometry relative="1" as="geometry" />
        </mxCell>
        <mxCell id="EZNUbbrIOKoAF0ysCXxH-47" value="Categ" style="whiteSpace=wrap;html=1;align=center;" parent="1" vertex="1">
          <mxGeometry x="1660" y="-670" width="100" height="40" as="geometry" />
        </mxCell>
        <mxCell id="EZNUbbrIOKoAF0ysCXxH-49" value="id" style="ellipse;whiteSpace=wrap;html=1;align=center;fontStyle=4;" parent="1" vertex="1">
          <mxGeometry x="1730" y="-760" width="100" height="40" as="geometry" />
        </mxCell>
        <mxCell id="EZNUbbrIOKoAF0ysCXxH-51" value="Name" style="ellipse;whiteSpace=wrap;html=1;align=center;" parent="1" vertex="1">
          <mxGeometry x="1600" y="-760" width="100" height="40" as="geometry" />
        </mxCell>
        <mxCell id="EZNUbbrIOKoAF0ysCXxH-54" style="edgeStyle=orthogonalEdgeStyle;rounded=0;orthogonalLoop=1;jettySize=auto;html=1;entryX=0.59;entryY=1;entryDx=0;entryDy=0;entryPerimeter=0;" parent="1" source="EZNUbbrIOKoAF0ysCXxH-56" target="EZNUbbrIOKoAF0ysCXxH-57" edge="1">
          <mxGeometry relative="1" as="geometry" />
        </mxCell>
        <mxCell id="EZNUbbrIOKoAF0ysCXxH-55" style="edgeStyle=orthogonalEdgeStyle;rounded=0;orthogonalLoop=1;jettySize=auto;html=1;entryX=0.41;entryY=1.025;entryDx=0;entryDy=0;entryPerimeter=0;" parent="1" source="EZNUbbrIOKoAF0ysCXxH-56" target="EZNUbbrIOKoAF0ysCXxH-58" edge="1">
          <mxGeometry relative="1" as="geometry" />
        </mxCell>
        <mxCell id="EZNUbbrIOKoAF0ysCXxH-56" value="Tags" style="whiteSpace=wrap;html=1;align=center;" parent="1" vertex="1">
          <mxGeometry x="1900" y="-680" width="100" height="40" as="geometry" />
        </mxCell>
        <mxCell id="EZNUbbrIOKoAF0ysCXxH-57" value="id" style="ellipse;whiteSpace=wrap;html=1;align=center;fontStyle=4;" parent="1" vertex="1">
          <mxGeometry x="1970" y="-770" width="100" height="40" as="geometry" />
        </mxCell>
        <mxCell id="EZNUbbrIOKoAF0ysCXxH-58" value="Name" style="ellipse;whiteSpace=wrap;html=1;align=center;" parent="1" vertex="1">
          <mxGeometry x="1840" y="-770" width="100" height="40" as="geometry" />
        </mxCell>
        <mxCell id="EZNUbbrIOKoAF0ysCXxH-59" value="Status" style="ellipse;whiteSpace=wrap;html=1;align=center;" parent="1" vertex="1">
          <mxGeometry x="560" y="-600" width="100" height="40" as="geometry" />
        </mxCell>
        <mxCell id="EZNUbbrIOKoAF0ysCXxH-68" value="provider" style="ellipse;whiteSpace=wrap;html=1;align=center;" parent="1" vertex="1">
          <mxGeometry x="780" y="-510" width="100" height="40" as="geometry" />
        </mxCell>
        <mxCell id="EZNUbbrIOKoAF0ysCXxH-73" style="edgeStyle=orthogonalEdgeStyle;rounded=0;orthogonalLoop=1;jettySize=auto;html=1;entryX=0.5;entryY=1;entryDx=0;entryDy=0;" parent="1" source="EZNUbbrIOKoAF0ysCXxH-70" target="EZNUbbrIOKoAF0ysCXxH-71" edge="1">
          <mxGeometry relative="1" as="geometry" />
        </mxCell>
        <mxCell id="EZNUbbrIOKoAF0ysCXxH-74" style="edgeStyle=orthogonalEdgeStyle;rounded=0;orthogonalLoop=1;jettySize=auto;html=1;entryX=0.5;entryY=1;entryDx=0;entryDy=0;" parent="1" source="EZNUbbrIOKoAF0ysCXxH-70" target="EZNUbbrIOKoAF0ysCXxH-72" edge="1">
          <mxGeometry relative="1" as="geometry" />
        </mxCell>
        <mxCell id="EZNUbbrIOKoAF0ysCXxH-70" value="donations" style="whiteSpace=wrap;html=1;align=center;" parent="1" vertex="1">
          <mxGeometry x="955" y="-660" width="100" height="40" as="geometry" />
        </mxCell>
        <mxCell id="EZNUbbrIOKoAF0ysCXxH-71" value="amount" style="ellipse;whiteSpace=wrap;html=1;align=center;" parent="1" vertex="1">
          <mxGeometry x="1005" y="-750" width="100" height="40" as="geometry" />
        </mxCell>
        <mxCell id="EZNUbbrIOKoAF0ysCXxH-72" value="id" style="ellipse;whiteSpace=wrap;html=1;align=center;fontStyle=4;" parent="1" vertex="1">
          <mxGeometry x="895" y="-750" width="100" height="40" as="geometry" />
        </mxCell>
        <mxCell id="EZNUbbrIOKoAF0ysCXxH-77" value="is_admin" style="ellipse;whiteSpace=wrap;html=1;align=center;" parent="1" vertex="1">
          <mxGeometry x="790.71" y="-350" width="100" height="40" as="geometry" />
        </mxCell>
        <mxCell id="EZNUbbrIOKoAF0ysCXxH-85" style="edgeStyle=orthogonalEdgeStyle;rounded=0;orthogonalLoop=1;jettySize=auto;html=1;entryX=0.5;entryY=1;entryDx=0;entryDy=0;" parent="1" source="EZNUbbrIOKoAF0ysCXxH-87" target="EZNUbbrIOKoAF0ysCXxH-88" edge="1">
          <mxGeometry relative="1" as="geometry" />
        </mxCell>
        <mxCell id="EZNUbbrIOKoAF0ysCXxH-86" style="edgeStyle=orthogonalEdgeStyle;rounded=0;orthogonalLoop=1;jettySize=auto;html=1;entryX=0.5;entryY=1;entryDx=0;entryDy=0;" parent="1" source="EZNUbbrIOKoAF0ysCXxH-87" edge="1">
          <mxGeometry relative="1" as="geometry">
            <mxPoint x="70.71000000000004" y="-385" as="targetPoint" />
            <Array as="points">
              <mxPoint x="125.71000000000004" y="-355" />
              <mxPoint x="70.71000000000004" y="-355" />
            </Array>
          </mxGeometry>
        </mxCell>
        <mxCell id="EZNUbbrIOKoAF0ysCXxH-87" value="comments" style="whiteSpace=wrap;html=1;align=center;" parent="1" vertex="1">
          <mxGeometry x="75.71000000000004" y="-325" width="100" height="40" as="geometry" />
        </mxCell>
        <mxCell id="EZNUbbrIOKoAF0ysCXxH-88" value="description" style="ellipse;whiteSpace=wrap;html=1;align=center;" parent="1" vertex="1">
          <mxGeometry x="137.71000000000004" y="-425" width="100" height="40" as="geometry" />
        </mxCell>
        <mxCell id="EZNUbbrIOKoAF0ysCXxH-100" style="edgeStyle=orthogonalEdgeStyle;rounded=0;orthogonalLoop=1;jettySize=auto;html=1;" parent="1" source="EZNUbbrIOKoAF0ysCXxH-90" edge="1">
          <mxGeometry relative="1" as="geometry">
            <mxPoint x="730" y="23" as="targetPoint" />
            <Array as="points">
              <mxPoint x="660" y="3" />
              <mxPoint x="730" y="3" />
            </Array>
          </mxGeometry>
        </mxCell>
        <mxCell id="EZNUbbrIOKoAF0ysCXxH-101" style="edgeStyle=orthogonalEdgeStyle;rounded=0;orthogonalLoop=1;jettySize=auto;html=1;entryX=0.5;entryY=0;entryDx=0;entryDy=0;" parent="1" source="EZNUbbrIOKoAF0ysCXxH-90" target="EZNUbbrIOKoAF0ysCXxH-98" edge="1">
          <mxGeometry relative="1" as="geometry" />
        </mxCell>
        <mxCell id="EZNUbbrIOKoAF0ysCXxH-90" value="rating" style="whiteSpace=wrap;html=1;align=center;" parent="1" vertex="1">
          <mxGeometry x="610" y="-67" width="110" height="40" as="geometry" />
        </mxCell>
        <mxCell id="EZNUbbrIOKoAF0ysCXxH-97" value="id" style="ellipse;whiteSpace=wrap;html=1;align=center;fontStyle=4;" parent="1" vertex="1">
          <mxGeometry x="24.710000000000036" y="-425" width="100" height="40" as="geometry" />
        </mxCell>
        <mxCell id="EZNUbbrIOKoAF0ysCXxH-98" value="rate" style="ellipse;whiteSpace=wrap;html=1;align=center;" parent="1" vertex="1">
          <mxGeometry x="550" y="33" width="100" height="40" as="geometry" />
        </mxCell>
        <mxCell id="EZNUbbrIOKoAF0ysCXxH-99" value="id" style="ellipse;whiteSpace=wrap;html=1;align=center;fontStyle=4;" parent="1" vertex="1">
          <mxGeometry x="680" y="24" width="100" height="40" as="geometry" />
        </mxCell>
        <mxCell id="EZNUbbrIOKoAF0ysCXxH-103" style="edgeStyle=orthogonalEdgeStyle;rounded=0;orthogonalLoop=1;jettySize=auto;html=1;entryX=0.59;entryY=-0.05;entryDx=0;entryDy=0;entryPerimeter=0;" parent="1" source="EZNUbbrIOKoAF0ysCXxH-113" target="EZNUbbrIOKoAF0ysCXxH-115" edge="1">
          <mxGeometry relative="1" as="geometry" />
        </mxCell>
        <mxCell id="EZNUbbrIOKoAF0ysCXxH-104" style="edgeStyle=orthogonalEdgeStyle;rounded=0;orthogonalLoop=1;jettySize=auto;html=1;entryX=0.5;entryY=0;entryDx=0;entryDy=0;" parent="1" source="EZNUbbrIOKoAF0ysCXxH-113" target="EZNUbbrIOKoAF0ysCXxH-114" edge="1">
          <mxGeometry relative="1" as="geometry" />
        </mxCell>
        <mxCell id="EZNUbbrIOKoAF0ysCXxH-105" style="edgeStyle=orthogonalEdgeStyle;rounded=0;orthogonalLoop=1;jettySize=auto;html=1;entryX=1;entryY=0;entryDx=0;entryDy=0;" parent="1" source="EZNUbbrIOKoAF0ysCXxH-113" target="EZNUbbrIOKoAF0ysCXxH-117" edge="1">
          <mxGeometry relative="1" as="geometry">
            <Array as="points">
              <mxPoint x="1200" y="-51" />
            </Array>
          </mxGeometry>
        </mxCell>
        <mxCell id="EZNUbbrIOKoAF0ysCXxH-106" style="edgeStyle=orthogonalEdgeStyle;rounded=0;orthogonalLoop=1;jettySize=auto;html=1;entryX=0.01;entryY=0.7;entryDx=0;entryDy=0;entryPerimeter=0;" parent="1" source="EZNUbbrIOKoAF0ysCXxH-113" target="EZNUbbrIOKoAF0ysCXxH-116" edge="1">
          <mxGeometry relative="1" as="geometry" />
        </mxCell>
        <mxCell id="EZNUbbrIOKoAF0ysCXxH-107" style="edgeStyle=orthogonalEdgeStyle;rounded=0;orthogonalLoop=1;jettySize=auto;html=1;entryX=0;entryY=0.5;entryDx=0;entryDy=0;" parent="1" source="EZNUbbrIOKoAF0ysCXxH-113" target="EZNUbbrIOKoAF0ysCXxH-119" edge="1">
          <mxGeometry relative="1" as="geometry" />
        </mxCell>
        <mxCell id="EZNUbbrIOKoAF0ysCXxH-108" style="edgeStyle=orthogonalEdgeStyle;rounded=0;orthogonalLoop=1;jettySize=auto;html=1;entryX=0;entryY=0.5;entryDx=0;entryDy=0;" parent="1" source="EZNUbbrIOKoAF0ysCXxH-113" target="EZNUbbrIOKoAF0ysCXxH-118" edge="1">
          <mxGeometry relative="1" as="geometry" />
        </mxCell>
        <mxCell id="EZNUbbrIOKoAF0ysCXxH-109" style="edgeStyle=orthogonalEdgeStyle;rounded=0;orthogonalLoop=1;jettySize=auto;html=1;entryX=1;entryY=0.5;entryDx=0;entryDy=0;" parent="1" source="EZNUbbrIOKoAF0ysCXxH-113" target="EZNUbbrIOKoAF0ysCXxH-120" edge="1">
          <mxGeometry relative="1" as="geometry" />
        </mxCell>
        <mxCell id="EZNUbbrIOKoAF0ysCXxH-110" style="edgeStyle=orthogonalEdgeStyle;rounded=0;orthogonalLoop=1;jettySize=auto;html=1;" parent="1" source="EZNUbbrIOKoAF0ysCXxH-113" target="EZNUbbrIOKoAF0ysCXxH-121" edge="1">
          <mxGeometry relative="1" as="geometry" />
        </mxCell>
        <mxCell id="EZNUbbrIOKoAF0ysCXxH-111" style="edgeStyle=orthogonalEdgeStyle;rounded=0;orthogonalLoop=1;jettySize=auto;html=1;entryX=0;entryY=0.5;entryDx=0;entryDy=0;" parent="1" source="EZNUbbrIOKoAF0ysCXxH-113" target="EZNUbbrIOKoAF0ysCXxH-122" edge="1">
          <mxGeometry relative="1" as="geometry" />
        </mxCell>
        <mxCell id="EZNUbbrIOKoAF0ysCXxH-112" style="edgeStyle=orthogonalEdgeStyle;rounded=0;orthogonalLoop=1;jettySize=auto;html=1;entryX=1;entryY=0.5;entryDx=0;entryDy=0;" parent="1" source="EZNUbbrIOKoAF0ysCXxH-113" target="EZNUbbrIOKoAF0ysCXxH-123" edge="1">
          <mxGeometry relative="1" as="geometry" />
        </mxCell>
        <mxCell id="EZNUbbrIOKoAF0ysCXxH-113" value="project" style="whiteSpace=wrap;html=1;align=center;" parent="1" vertex="1">
          <mxGeometry x="1150" y="-266" width="100" height="40" as="geometry" />
        </mxCell>
        <mxCell id="EZNUbbrIOKoAF0ysCXxH-114" value="id" style="ellipse;whiteSpace=wrap;html=1;align=center;fontStyle=4;" parent="1" vertex="1">
          <mxGeometry x="1230" y="-107" width="100" height="40" as="geometry" />
        </mxCell>
        <mxCell id="EZNUbbrIOKoAF0ysCXxH-115" value="tittle" style="ellipse;whiteSpace=wrap;html=1;align=center;" parent="1" vertex="1">
          <mxGeometry x="1060" y="-107" width="100" height="40" as="geometry" />
        </mxCell>
        <mxCell id="EZNUbbrIOKoAF0ysCXxH-116" value="target" style="ellipse;whiteSpace=wrap;html=1;align=center;" parent="1" vertex="1">
          <mxGeometry x="1230" y="-57" width="100" height="40" as="geometry" />
        </mxCell>
        <mxCell id="EZNUbbrIOKoAF0ysCXxH-117" value="daitals" style="ellipse;whiteSpace=wrap;html=1;align=center;" parent="1" vertex="1">
          <mxGeometry x="1060" y="-57" width="100" height="40" as="geometry" />
        </mxCell>
        <mxCell id="EZNUbbrIOKoAF0ysCXxH-118" value="End_time" style="ellipse;whiteSpace=wrap;html=1;align=center;" parent="1" vertex="1">
          <mxGeometry x="1330" y="-199" width="100" height="40" as="geometry" />
        </mxCell>
        <mxCell id="EZNUbbrIOKoAF0ysCXxH-119" value="Start_time" style="ellipse;whiteSpace=wrap;html=1;align=center;" parent="1" vertex="1">
          <mxGeometry x="1330" y="-249" width="100" height="40" as="geometry" />
        </mxCell>
        <mxCell id="EZNUbbrIOKoAF0ysCXxH-120" value="images" style="ellipse;whiteSpace=wrap;html=1;align=center;" parent="1" vertex="1">
          <mxGeometry x="970" y="-287" width="100" height="40" as="geometry" />
        </mxCell>
        <mxCell id="EZNUbbrIOKoAF0ysCXxH-121" value="Rating" style="ellipse;whiteSpace=wrap;html=1;align=center;" parent="1" vertex="1">
          <mxGeometry x="970" y="-237" width="100" height="40" as="geometry" />
        </mxCell>
        <mxCell id="EZNUbbrIOKoAF0ysCXxH-122" value="creation_time" style="ellipse;whiteSpace=wrap;html=1;align=center;" parent="1" vertex="1">
          <mxGeometry x="1330" y="-300" width="100" height="40" as="geometry" />
        </mxCell>
        <mxCell id="EZNUbbrIOKoAF0ysCXxH-123" value="featued" style="ellipse;whiteSpace=wrap;html=1;align=center;" parent="1" vertex="1">
          <mxGeometry x="970" y="-186" width="100" height="40" as="geometry" />
        </mxCell>
        <mxCell id="EZNUbbrIOKoAF0ysCXxH-125" style="edgeStyle=orthogonalEdgeStyle;rounded=0;orthogonalLoop=1;jettySize=auto;html=1;entryX=0.5;entryY=1;entryDx=0;entryDy=0;" parent="1" source="EZNUbbrIOKoAF0ysCXxH-127" target="EZNUbbrIOKoAF0ysCXxH-128" edge="1">
          <mxGeometry relative="1" as="geometry" />
        </mxCell>
        <mxCell id="EZNUbbrIOKoAF0ysCXxH-132" style="edgeStyle=orthogonalEdgeStyle;rounded=0;orthogonalLoop=1;jettySize=auto;html=1;entryX=0.5;entryY=0;entryDx=0;entryDy=0;" parent="1" source="EZNUbbrIOKoAF0ysCXxH-127" target="EZNUbbrIOKoAF0ysCXxH-131" edge="1">
          <mxGeometry relative="1" as="geometry" />
        </mxCell>
        <mxCell id="EZNUbbrIOKoAF0ysCXxH-127" value="reply" style="whiteSpace=wrap;html=1;align=center;rotation=0;" parent="1" vertex="1">
          <mxGeometry x="-126" y="-375" width="100" height="40" as="geometry" />
        </mxCell>
        <mxCell id="EZNUbbrIOKoAF0ysCXxH-128" value="description" style="ellipse;whiteSpace=wrap;html=1;align=center;rotation=0;" parent="1" vertex="1">
          <mxGeometry x="-240" y="-436" width="100" height="40" as="geometry" />
        </mxCell>
        <mxCell id="EZNUbbrIOKoAF0ysCXxH-130" value="" style="edgeStyle=orthogonalEdgeStyle;rounded=0;orthogonalLoop=1;jettySize=auto;html=1;" parent="1" target="EZNUbbrIOKoAF0ysCXxH-128" edge="1">
          <mxGeometry relative="1" as="geometry">
            <mxPoint x="-189" y="-356" as="sourcePoint" />
          </mxGeometry>
        </mxCell>
        <mxCell id="EZNUbbrIOKoAF0ysCXxH-131" value="id" style="ellipse;whiteSpace=wrap;html=1;align=center;fontStyle=4;" parent="1" vertex="1">
          <mxGeometry x="-240" y="-306" width="100" height="40" as="geometry" />
        </mxCell>
        <mxCell id="cVWXQ6BWnXz_K0YUeZmY-1" value="have" style="shape=rhombus;perimeter=rhombusPerimeter;whiteSpace=wrap;html=1;align=center;" vertex="1" parent="1">
          <mxGeometry x="940" y="-425" width="120" height="60" as="geometry" />
        </mxCell>
        <mxCell id="cVWXQ6BWnXz_K0YUeZmY-6" value="" style="endArrow=none;html=1;rounded=0;entryX=0;entryY=0.5;entryDx=0;entryDy=0;" edge="1" parent="1" target="cVWXQ6BWnXz_K0YUeZmY-1">
          <mxGeometry relative="1" as="geometry">
            <mxPoint x="780" y="-395" as="sourcePoint" />
            <mxPoint x="940" y="-390" as="targetPoint" />
          </mxGeometry>
        </mxCell>
        <mxCell id="cVWXQ6BWnXz_K0YUeZmY-7" value="1" style="resizable=0;html=1;align=right;verticalAlign=bottom;" connectable="0" vertex="1" parent="cVWXQ6BWnXz_K0YUeZmY-6">
          <mxGeometry x="1" relative="1" as="geometry" />
        </mxCell>
        <mxCell id="cVWXQ6BWnXz_K0YUeZmY-10" value="" style="shape=link;html=1;rounded=0;exitX=1;exitY=0.5;exitDx=0;exitDy=0;" edge="1" parent="1" source="cVWXQ6BWnXz_K0YUeZmY-1">
          <mxGeometry relative="1" as="geometry">
            <mxPoint x="1080" y="-350" as="sourcePoint" />
            <mxPoint x="1190" y="-270" as="targetPoint" />
            <Array as="points">
              <mxPoint x="1190" y="-395" />
            </Array>
          </mxGeometry>
        </mxCell>
        <mxCell id="cVWXQ6BWnXz_K0YUeZmY-11" value="N" style="resizable=0;html=1;align=right;verticalAlign=bottom;" connectable="0" vertex="1" parent="cVWXQ6BWnXz_K0YUeZmY-10">
          <mxGeometry x="1" relative="1" as="geometry">
            <mxPoint x="-130" y="-100.28999999999999" as="offset" />
          </mxGeometry>
        </mxCell>
        <mxCell id="cVWXQ6BWnXz_K0YUeZmY-14" value="" style="shape=link;html=1;rounded=0;exitX=0.5;exitY=0;exitDx=0;exitDy=0;" edge="1" parent="1" source="cVWXQ6BWnXz_K0YUeZmY-1">
          <mxGeometry relative="1" as="geometry">
            <mxPoint x="999.41" y="-435" as="sourcePoint" />
            <mxPoint x="999.41" y="-620" as="targetPoint" />
          </mxGeometry>
        </mxCell>
        <mxCell id="cVWXQ6BWnXz_K0YUeZmY-15" value="N" style="resizable=0;html=1;align=right;verticalAlign=bottom;" connectable="0" vertex="1" parent="cVWXQ6BWnXz_K0YUeZmY-14">
          <mxGeometry x="1" relative="1" as="geometry">
            <mxPoint x="-9.409999999999993" y="200.29000000000002" as="offset" />
          </mxGeometry>
        </mxCell>
        <mxCell id="cVWXQ6BWnXz_K0YUeZmY-16" value="N" style="resizable=0;html=1;align=right;verticalAlign=bottom;" connectable="0" vertex="1" parent="1">
          <mxGeometry x="989.9991128102138" y="-420.00322374284315" as="geometry" />
        </mxCell>
        <mxCell id="cVWXQ6BWnXz_K0YUeZmY-17" value="donate" style="shape=rhombus;perimeter=rhombusPerimeter;whiteSpace=wrap;html=1;align=center;" vertex="1" parent="1">
          <mxGeometry x="1060" y="-550" width="120" height="60" as="geometry" />
        </mxCell>
        <mxCell id="cVWXQ6BWnXz_K0YUeZmY-18" value="" style="endArrow=none;html=1;rounded=0;entryX=0.7;entryY=0;entryDx=0;entryDy=0;entryPerimeter=0;" edge="1" parent="1" target="EZNUbbrIOKoAF0ysCXxH-113">
          <mxGeometry relative="1" as="geometry">
            <mxPoint x="1180" y="-520" as="sourcePoint" />
            <mxPoint x="1340" y="-520" as="targetPoint" />
            <Array as="points">
              <mxPoint x="1220" y="-520" />
            </Array>
          </mxGeometry>
        </mxCell>
        <mxCell id="cVWXQ6BWnXz_K0YUeZmY-20" value="1" style="resizable=0;html=1;align=right;verticalAlign=bottom;" connectable="0" vertex="1" parent="1">
          <mxGeometry x="940" y="-395" as="geometry">
            <mxPoint x="245" y="-129" as="offset" />
          </mxGeometry>
        </mxCell>
        <mxCell id="cVWXQ6BWnXz_K0YUeZmY-21" value="" style="shape=link;html=1;rounded=0;exitX=0.65;exitY=1;exitDx=0;exitDy=0;exitPerimeter=0;entryX=0;entryY=0.5;entryDx=0;entryDy=0;" edge="1" parent="1" source="EZNUbbrIOKoAF0ysCXxH-70" target="cVWXQ6BWnXz_K0YUeZmY-17">
          <mxGeometry relative="1" as="geometry">
            <mxPoint x="1040" y="-580.59" as="sourcePoint" />
            <mxPoint x="1200" y="-580.59" as="targetPoint" />
            <Array as="points">
              <mxPoint x="1020" y="-520" />
            </Array>
          </mxGeometry>
        </mxCell>
        <mxCell id="cVWXQ6BWnXz_K0YUeZmY-22" value="N" style="resizable=0;html=1;align=right;verticalAlign=bottom;" connectable="0" vertex="1" parent="cVWXQ6BWnXz_K0YUeZmY-21">
          <mxGeometry x="1" relative="1" as="geometry" />
        </mxCell>
      </root>
    </mxGraphModel>
  </diagram>
</mxfile>
